<?xml version="1.0" encoding="UTF-8" standalone="no"?>
<!-- Created with Inkscape (http://www.inkscape.org/) -->

<svg viewBox="0 0 6.3499999 6.3500002" xmlns="http://www.w3.org/2000/svg">
   <g id="layer1" fill="#ffffff10">
      <animateTransform attributeName="transform" attributeType="XML" type="rotate" dur="20s" from="0 3.185 3.185"
         to="360 3.185 3.185" repeatCount="indefinite" />
      <g id="redux" transform="matrix(0.20930271,0,0,0.20930271,0.52882362,0.66294887)">
         <path
            d="m 17.54,16.745 c 0.893,-0.089 1.585,-0.837 1.585,-1.746 0,-0.036 -0.001,-0.072 -0.003,-0.108 v 0.005 C 19.075,13.933 18.288,13.17 17.321,13.16 h -0.065 c -0.968,0.036 -1.739,0.829 -1.739,1.802 0,0.022 0,0.044 0.001,0.067 v -0.003 c 0.026,0.473 0.22,0.897 0.522,1.217 l -10e-4,-10e-4 c -1.187,2.214 -3.001,3.96 -5.204,5.031 l -0.069,0.03 c -1.192,0.66 -2.614,1.048 -4.127,1.048 -0.383,0 -0.761,-0.025 -1.13,-0.073 l 0.044,0.005 C 4.192,22.152 3.02,21.439 2.276,20.399 L 2.267,20.385 C 1.73,19.63 1.409,18.69 1.409,17.674 c 0,-0.837 0.218,-1.623 0.601,-2.305 L 1.998,15.393 C 2.545,14.357 3.291,13.495 4.192,12.831 L 4.213,12.817 C 4.042,12.364 3.889,11.818 3.781,11.257 L 3.77,11.191 c -4.683,3.349 -4.208,7.93 -2.786,10.095 1.243,1.586 3.159,2.596 5.311,2.596 0.098,0 0.195,-0.002 0.292,-0.006 H 6.573 c 0.035,10e-4 0.077,10e-4 0.119,10e-4 0.647,0 1.276,-0.075 1.88,-0.216 l -0.056,0.011 c 4.008,-0.734 7.29,-3.317 8.974,-6.814 l 0.032,-0.074 z" />
         <path
            d="m 23.18,12.799 c -2.403,-2.74 -5.91,-4.46 -9.82,-4.46 -0.119,0 -0.239,0.002 -0.357,0.005 h 0.018 -0.538 c -0.283,-0.567 -0.86,-0.95 -1.526,-0.95 -0.02,0 -0.039,0 -0.059,10e-4 h 0.003 -0.039 c -0.966,0.014 -1.744,0.8 -1.744,1.768 0,0.029 10e-4,0.057 0.002,0.085 V 9.244 c 0.045,0.963 0.832,1.728 1.8,1.738 h 0.079 c 0.714,-0.028 1.317,-0.472 1.577,-1.094 L 12.58,9.876 h 0.585 c 2.554,0.003 4.924,0.787 6.884,2.128 l -0.042,-0.027 c 1.531,0.98 2.713,2.388 3.392,4.055 l 0.021,0.058 c 0.26,0.542 0.411,1.178 0.411,1.849 0,0.71 -0.169,1.38 -0.47,1.972 l 0.011,-0.025 c -0.777,1.586 -2.379,2.658 -4.231,2.658 -0.068,0 -0.135,-0.001 -0.202,-0.004 h 0.01 c -1.137,-0.024 -2.21,-0.274 -3.183,-0.707 l 0.052,0.021 c -0.379,0.316 -1.011,0.836 -1.47,1.153 1.214,0.596 2.638,0.959 4.143,0.994 h 0.012 c 0.059,0.002 0.128,0.003 0.197,0.003 2.552,0 4.787,-1.355 6.026,-3.384 l 0.018,-0.031 c 0.342,-0.811 0.54,-1.753 0.54,-2.742 0,-1.98 -0.796,-3.774 -2.085,-5.079 l 10e-4,10e-4 -0.015,0.032 z" />
         <path
            d="m 6.844,17.316 c 0.044,0.964 0.833,1.731 1.803,1.738 h 0.064 c 0.968,-0.033 1.741,-0.827 1.741,-1.8 0,-0.99 -0.799,-1.794 -1.788,-1.801 H 8.597 c -0.01,-10e-4 -0.022,-10e-4 -0.033,-10e-4 -0.073,0 -0.143,0.011 -0.209,0.033 L 8.36,15.484 C 7.29,13.743 6.657,11.634 6.657,9.377 6.657,9.013 6.673,8.653 6.706,8.298 L 6.703,8.344 C 6.794,6.438 7.494,4.711 8.61,3.337 L 8.598,3.353 C 9.589,2.282 10.985,1.6 12.542,1.55 h 0.009 c 3.412,-0.064 4.835,4.188 4.945,5.878 l 1.582,0.473 C 18.71,2.72 15.488,0 12.407,0 9.275,0.163 6.676,2.27 5.785,5.131 L 5.771,5.183 C 5.333,6.445 5.079,7.899 5.079,9.412 5.079,12 5.82,14.415 7.1,16.456 L 7.068,16.401 c -0.143,0.216 -0.228,0.481 -0.228,0.766 0,0.053 0.003,0.105 0.009,0.156 L 6.848,17.317 Z" />
      </g>
   </g>
</svg>