<svg id="icon-art" viewBox="0 0 64 32" version="1.1" fill="#ffffff" width="64" height="32"
   xmlns="http://www.w3.org/2000/svg">
   <path id="circle_01"
      d="m 32.130859,0.5234375 -0.0078,0.4941406 c -0.04119,-3.329e-4 -0.0818,-0.00391 -0.123059,-0.00391 -0.454766,0 -0.903197,0.022829 -1.347656,0.0625 l -0.04297,-0.49218752 -0.191406,0.0175781 -0.388672,0.0449219 -0.386719,0.0527344 -0.382812,0.0644531 -0.158204,0.0292969 0.09375,0.48632812 C 28.709116,1.3714309 28.23008,1.4871116 27.761719,1.625 l -0.140625,-0.4746094 -0.22461,0.066406 -0.361328,0.1171875 -0.357422,0.1269531 -0.353515,0.1347656 -0.138672,0.056641 0.185547,0.4570312 c -0.457313,0.1855276 -0.902391,0.39302 -1.335938,0.6210938 l -0.230468,-0.4375 -0.183594,0.097656 -0.326172,0.1816406 -0.322266,0.1894532 -0.316406,0.1992187 -0.162109,0.1054687 0.271484,0.4121094 C 23.354511,3.7494499 22.957685,4.04062 22.576172,4.3496092 l -0.308594,-0.3847654 -0.113281,0.091797 -0.283203,0.2402344 -0.279297,0.2460938 -0.271484,0.2519531 -0.1875,0.1835937 0.34375,0.3515625 C 21.126756,5.6751167 20.795162,6.0381879 20.480469,6.4160156 L 20.103516,6.0976562 20.056641,6.1542969 19.822266,6.4433594 19.595703,6.7382812 19.376953,7.0390625 19.1875,7.3125 19.591797,7.59375 C 19.316598,7.9991163 19.06136,8.4191416 18.826172,8.8515625 l -0.431641,-0.2402344 -0.0039,0.00977 -0.175781,0.3320312 -0.166016,0.3359375 -0.160156,0.3398437 -0.150391,0.3457032 -0.0059,0.013672 0.457031,0.1855463 c -0.190411,0.450804 -0.359579,0.91273 -0.505859,1.384766 l -0.472656,-0.140625 -0.101563,0.34375 -0.09961,0.36914 -0.0918,0.373047 -0.08203,0.376953 -0.002,0.01172 0.484375,0.0918 c -0.09804,0.479613 -0.175561,0.96779 -0.226571,1.462887 l -0.488282,-0.05664 -0.0019,0.02734 -0.03516,0.390625 -0.02539,0.394531 -0.01367,0.396484 -0.0039,0.3125 0.492188,0.0059 c -1.48e-4,0.02746 -0.002,0.05453 -0.002,0.08203 0,0.46875 0.02429,0.930901 0.06641,1.388672 l -0.492188,0.04297 0.01367,0.15039 0.04492,0.388672 0.05273,0.384766 0.06445,0.382812 0.03711,0.201172 0.486329,-0.0918 c 0.09337,0.484956 0.210698,0.962581 0.349609,1.429688 l -0.474609,0.140625 0.05469,0.183593 0.117187,0.361329 0.126953,0.357421 0.134766,0.355469 0.07227,0.177735 0.45703,-0.187538 C 18.311764,22.122836 18.520739,22.567029 18.75,23 l -0.4375,0.232422 0.07813,0.144531 0.181641,0.326172 0.189453,0.322266 0.199219,0.316406 0.128906,0.197265 0.412109,-0.269531 c 0.271702,0.409761 0.563466,0.805383 0.873047,1.185547 l -0.382812,0.310547 0.06445,0.08008 0.240233,0.283203 0.246094,0.277344 0.251953,0.271484 0.21289,0.21875 0.351563,-0.34375 c 0.346036,0.348898 0.709133,0.680441 1.087891,0.994141 l -0.316407,0.376953 0.02344,0.01953 0.289063,0.232422 0.294922,0.226563 0.300782,0.21875 0.306641,0.21289 0.0078,0.0039 0.269532,-0.410157 c 0.406163,0.27435 0.826594,0.529421 1.259765,0.763672 l -0.228516,0.435547 0.298828,0.15625 0.335938,0.167969 0.339843,0.158203 0.345703,0.152344 0.05274,0.02148 0.185547,-0.455078 c 0.451302,0.189102 0.914272,0.355073 1.386718,0.5 l -0.140625,0.470703 0.302735,0.0918 0.36914,0.09961 0.373047,0.08984 0.376953,0.08203 0.05274,0.01172 0.0918,-0.484375 c 0.4785,0.09641 0.965169,0.173017 1.458984,0.222656 l -0.04492,0.488282 0.369141,0.03125 0.394531,0.02539 0.396484,0.01563 0.353516,0.0039 0.0078,-0.492187 c 0.01309,3.4e-5 0.02596,0.002 0.03906,0.002 0.482684,0 0.958674,-0.02373 1.429688,-0.06836 l 0.04492,0.488281 0.107422,-0.0078 0.388672,-0.04492 0.384766,-0.05469 0.382812,-0.0625 0.242188,-0.04687 -0.0918,-0.484375 c 0.484985,-0.09478 0.962658,-0.213171 1.429687,-0.353516 l 0.140625,0.472657 0.142578,-0.04297 0.361329,-0.117188 0.357421,-0.125 0.355469,-0.134765 0.216797,-0.08984 -0.185547,-0.455078 c 0.456773,-0.188313 0.901205,-0.39806 1.333985,-0.628906 l 0.228515,0.435547 0.107422,-0.05664 0.326172,-0.183594 0.322266,-0.189453 0.316406,-0.197266 0.232422,-0.154296 -0.269531,-0.410157 c 0.409596,-0.273257 0.80572,-0.565776 1.185546,-0.876953 l 0.308594,0.382813 0.04687,-0.03711 0.283203,-0.240234 0.277344,-0.246094 0.271484,-0.253906 0.248047,-0.242187 -0.341797,-0.351563 c 0.346617,-0.345792 0.676682,-0.707739 0.988282,-1.085937 l 0.380859,0.308593 0.222656,-0.277343 0.226563,-0.294922 0.21875,-0.300782 0.21289,-0.304687 0.02734,-0.04297 -0.408203,-0.271484 c 0.272882,-0.406612 0.525026,-0.828236 0.757813,-1.261719 l 0.435546,0.228516 0.136719,-0.259766 0.167969,-0.337891 0.158203,-0.339843 0.152344,-0.345703 0.03711,-0.0918 -0.455078,-0.185547 c 0.187619,-0.451479 0.352628,-0.914217 0.496094,-1.386719 L 46.8125,20.5 l 0.07813,-0.263672 0.09961,-0.36914 0.08984,-0.373047 0.08203,-0.375 0.01953,-0.0957 -0.484375,-0.0918 c 0.09497,-0.478553 0.168583,-0.965215 0.216796,-1.458985 l 0.488282,0.04492 0.0293,-0.328125 0.02539,-0.394531 0.01563,-0.396484 0.0039,-0.396485 -0.490234,-0.0059 c -1.12e-4,-0.438787 -0.02152,-0.871568 -0.05859,-1.300782 l 0.490235,-0.04492 -0.01953,-0.232422 -0.04492,-0.388672 -0.05469,-0.386719 -0.0625,-0.382812 -0.02344,-0.117188 -0.486329,0.09375 c -0.09071,-0.486045 -0.203423,-0.965269 -0.339843,-1.433594 l 0.474609,-0.140625 -0.08008,-0.265625 -0.117188,-0.361328 -0.125,-0.357422 -0.134765,-0.353515 -0.04102,-0.09961 -0.458984,0.185547 C 45.720121,9.9525405 45.515798,9.5062222 45.289062,9.0722656 L 45.724609,8.8417969 45.609375,8.6210938 45.425781,8.2949219 45.236328,7.9726562 45.039062,7.65625 44.955078,7.53125 44.542969,7.8027344 C 44.272996,7.3905205 43.983938,6.9920252 43.675781,6.609375 L 44.060547,6.3007812 43.943359,6.1542969 43.703125,5.8710938 43.457031,5.5917969 43.203125,5.3203125 l -0.152344,-0.15625 -0.353515,0.34375 c -0.344054,-0.3507304 -0.705118,-0.6843019 -1.082032,-1 l 0.31836,-0.3769531 -0.08789,-0.074219 -0.291015,-0.234375 -0.294922,-0.2265625 -0.300782,-0.21875 -0.238281,-0.1640625 -0.279297,0.4042969 C 40.03595,3.3402138 39.616305,3.0825576 39.183594,2.8457031 L 39.423828,2.4160156 39.376953,2.390625 39.046875,2.2148438 38.708984,2.0488281 38.369141,1.8886719 38.056641,1.7519531 37.857422,2.203125 C 37.407183,2.0117326 36.946136,1.8406879 36.474609,1.6933594 L 36.626953,1.2265625 36.601562,1.2167969 36.236328,1.109375 35.867188,1.0097656 35.494141,0.91796875 35.154297,0.84375 35.050781,1.3261719 C 34.573148,1.2273393 34.086823,1.1498373 33.59375,1.0976562 L 33.65039,0.609375 33.58203,0.601562 33.189452,0.5664057 32.794921,0.5410151 32.398437,0.5273432 Z M 32,1.1972656 c 8.176434,0 14.802734,6.6263003 14.802734,14.8027344 0,8.176434 -6.6263,14.802734 -14.802734,14.802734 -8.176434,0 -14.802734,-6.6263 -14.802734,-14.802734 0,-8.1764341 6.6263,-14.8027344 14.802734,-14.8027344 z">
      <animateTransform attributeName="transform" attributeType="XML" type="rotate" dur="20s" from="0 32 16"
         to="-360 32 16" repeatCount="indefinite" />
   </path>
   <path id="circle_02"
      d="M 32,2.4517002 C 24.518293,2.4517002 18.4517,8.5182929 18.4517,16 18.4517,23.481707 24.518293,29.548299 32,29.548299 39.481707,29.548299 45.548299,23.481707 45.548299,16 45.548299,8.5182929 39.481707,2.4517002 32,2.4517002 Z m 0,0.1838892 C 39.381936,2.6355894 45.364411,8.6180636 45.364411,16 45.364411,23.381936 39.381936,29.364411 32,29.364411 24.618064,29.364411 18.635589,23.381936 18.635589,16 18.635589,8.6180636 24.618064,2.6355894 32,2.6355894 Z" />
   <path id="circle_03"
      d="M 32,3.9805037 C 25.362448,3.9805037 19.980504,9.3624475 19.980504,16 19.980504,22.637553 25.362448,28.019496 32,28.019496 38.637553,28.019496 44.019496,22.637553 44.019496,16 44.019496,9.3624475 38.637553,3.9805037 32,3.9805037 Z m 0,0.1838891 C 38.537782,4.1643928 43.835608,9.4622181 43.835608,16 43.835608,22.537782 38.537782,27.835608 32,27.835608 25.462218,27.835608 20.164393,22.537782 20.164393,16 20.164393,9.4622181 25.462218,4.1643928 32,4.1643928 Z" />
   <path id="circle_04"
      d="m 32,7.578125 c -4.650694,0 -8.421875,3.771181 -8.421875,8.421875 0,4.650694 3.771181,8.421875 8.421875,8.421875 4.650694,0 8.421875,-3.771181 8.421875,-8.421875 0,-3.420454 -2.041015,-6.3647466 -4.970703,-7.6835938 l -0.07422,0.1640626 C 38.245218,9.7701093 40.242188,12.650264 40.242188,16 c 0,4.553536 -3.688652,8.242188 -8.242188,8.242188 -4.553536,0 -8.242187,-3.688652 -8.242187,-8.242188 0,-4.553536 3.688651,-8.2421875 8.242187,-8.2421875 0.07707,0 0.153908,-1.467e-4 0.230469,0.00195 l 0.0039,-0.1796875 C 32.156339,7.5779398 32.078551,7.578125 32,7.578125 Z">
      <animateTransform attributeName="transform" attributeType="XML" type="rotate" dur="8s" from="0 32 16"
         to="-360 32 16" repeatCount="indefinite" />
   </path>
   <path id="circle_05"
      d="M 32 8.0644531 C 27.619716 8.0644531 24.064454 11.619716 24.064453 16 C 24.064454 20.380284 27.619716 23.935547 32 23.935547 C 36.380284 23.935547 39.935547 20.380284 39.935547 16 C 39.935547 14.895937 39.710801 13.844237 39.302734 12.888672 L 38.912109 13.154297 C 39.273332 14.031587 39.474609 14.991746 39.474609 16 C 39.474609 20.130857 36.130857 23.474609 32 23.474609 C 27.869143 23.474609 24.525391 20.130857 24.525391 16 C 24.525391 11.869143 27.869143 8.5253907 32 8.5253906 C 33.461081 8.5253907 34.821753 8.9443873 35.972656 9.6679688 L 36.238281 9.2910156 C 35.011862 8.5140531 33.558122 8.0644532 32 8.0644531 z ">
      <animateTransform attributeName="transform" attributeType="XML" type="rotate" dur="25s" from="0 32 16"
         to="-360 32 16" repeatCount="indefinite" />
   </path>
   <circle id="path3515" cx="28.525997" cy="11.446522" r="0.75" />
   <path id="path2" opacity="0.9"
      d="M 40.169922 4.3398438 L 37.113281 8.7636719 C 37.718803 9.1956598 38.245612 9.6786575 38.708984 10.216797 L 38.71875 10.228516 L 42.787109 6.6738281 C 42.015441 5.7904681 41.135433 5.0072098 40.169922 4.3398438 z M 32.044922 4.7617188 C 30.586066 4.7650667 29.136683 5.055775 27.78125 5.6191406 L 28.671875 7.8046875 C 29.687461 7.3852889 30.815379 7.1459114 31.998047 7.1386719 L 32 7.1386719 C 32.108892 7.1387837 32.218208 7.1404693 32.326172 7.1445312 L 32.414062 4.7675781 C 32.29136 4.7638617 32.16951 4.7613966 32.046875 4.7617188 L 32.044922 4.7617188 z M 32.984375 4.8007812 L 32.775391 7.1757812 C 33.377292 7.229164 33.962135 7.3406777 34.523438 7.5078125 L 35.191406 5.2050781 C 34.465321 4.9940126 33.725916 4.8612501 32.984375 4.8007812 z M 24.710938 5.2382812 C 23.825731 5.845649 23.021403 6.5613638 22.3125 7.3671875 L 25.419922 10.099609 C 25.903601 9.5596284 26.44245 9.0869671 27.033203 8.6835938 L 27.064453 8.6640625 L 24.710938 5.2382812 z M 27.261719 5.8496094 C 26.928192 6.0086227 26.600199 6.1838388 26.28125 6.3769531 L 27.503906 8.3964844 C 27.746602 8.2488777 27.999026 8.1104354 28.259766 7.9863281 L 27.261719 5.8496094 z M 35.009766 7.1757812 L 34.863281 7.6152344 C 35.596154 7.8697923 36.233233 8.1839888 36.820312 8.5664062 L 37.082031 8.1601562 C 36.434049 7.7475533 35.738976 7.4176207 35.009766 7.1757812 z M 40.529297 9.0507812 L 38.851562 10.384766 C 38.974703 10.534246 39.091824 10.687748 39.205078 10.845703 L 40.939453 9.6054688 C 40.808457 9.4172245 40.6727 9.2331815 40.529297 9.0527344 L 40.529297 9.0507812 z M 24.15625 9.9511719 C 23.448394 10.869415 22.91919 11.889015 22.574219 12.958984 L 23.574219 13.28125 C 23.893528 12.30076 24.377544 11.394667 24.996094 10.597656 L 24.15625 9.9511719 z M 41.246094 10.072266 L 39.457031 11.21875 C 40.08311 12.194234 40.52484 13.30617 40.728516 14.501953 L 42.759766 14.152344 C 42.535935 12.705302 42.021009 11.317678 41.246094 10.072266 z M 22.431641 13.443359 C 21.955801 15.225964 21.981053 17.126394 22.537109 18.923828 L 23.550781 18.609375 C 23.293989 17.801664 23.146091 16.919846 23.138672 16.003906 L 23.138672 16 C 23.141187 15.208796 23.248562 14.442167 23.445312 13.712891 L 22.431641 13.443359 z M 42.830078 14.703125 L 40.792969 14.947266 C 40.826111 15.226807 40.848909 15.50994 40.855469 15.796875 L 40.855469 15.806641 L 42.888672 15.804688 C 42.888394 15.435363 42.867529 15.06781 42.830078 14.703125 z M 40.861328 16 C 40.860581 16.268204 40.846308 16.53284 40.822266 16.794922 L 41.888672 16.890625 C 41.915253 16.59592 41.929688 16.299293 41.929688 16 L 40.861328 16 z M 40.771484 17.242188 C 40.699665 17.744508 40.585881 18.233708 40.433594 18.705078 L 41.453125 19.03125 C 41.623835 18.499787 41.750692 17.952029 41.830078 17.392578 L 40.771484 17.242188 z M 23.699219 19.033203 L 22.699219 19.400391 C 22.759663 19.565551 22.82291 19.729714 22.892578 19.892578 L 23.876953 19.470703 C 23.813296 19.328343 23.755463 19.181859 23.699219 19.033203 z M 40.28125 19.128906 C 39.542673 21.068496 38.145256 22.682693 36.359375 23.693359 L 36.314453 23.714844 L 36.84375 24.666016 C 38.917894 23.505984 40.470086 21.662271 41.285156 19.507812 L 40.28125 19.128906 z M 24.042969 19.875 L 21.945312 20.902344 C 22.3533 21.73309 22.860953 22.50871 23.460938 23.214844 L 25.248047 21.697266 C 24.79206 21.167434 24.392243 20.57007 24.066406 19.925781 L 24.042969 19.875 z M 25.517578 22.013672 L 21.605469 25.658203 C 21.866761 25.938482 22.139707 26.207077 22.421875 26.464844 L 26.03125 22.519531 C 25.854629 22.358589 25.685476 22.191303 25.523438 22.017578 L 25.517578 22.013672 z M 26.371094 22.8125 L 22.966797 26.9375 C 23.389332 27.285768 23.831226 27.610597 24.292969 27.908203 L 27.191406 23.414062 C 26.900624 23.224587 26.628298 23.023871 26.371094 22.8125 z M 27.669922 23.707031 L 27.072266 24.773438 C 27.797784 25.180504 28.569993 25.494021 29.373047 25.710938 L 29.691406 24.53125 C 28.939016 24.32556 28.281882 24.05105 27.669922 23.707031 z M 36.03125 23.888672 C 35.584659 24.121813 35.107291 24.318507 34.605469 24.472656 L 35.841797 28.486328 C 36.543655 28.280317 37.230574 28.014671 37.894531 27.689453 L 36.03125 23.888672 z M 34.171875 24.59375 C 34.033722 24.628517 33.893072 24.659248 33.751953 24.6875 L 34.580078 28.787109 C 34.78738 28.748186 34.993838 28.705263 35.199219 28.65625 L 34.171875 24.59375 z M 30.298828 24.675781 L 29.417969 28.712891 C 30.908769 29.038567 32.433 29.094343 33.923828 28.892578 L 33.306641 24.763672 C 32.881005 24.826452 32.444796 24.861328 32 24.861328 C 31.413578 24.854172 30.847273 24.789229 30.298828 24.675781 z ">
      <animateTransform attributeName="transform" attributeType="XML" type="rotate" dur="5s" from="0 32 16"
         to="360 32 16" repeatCount="indefinite" />
   </path>
   <path id="footnote"
      d="M 1.2684964,2.3867071 V 2.5917178 H 19.739173 l 8.645997,8.7566482 0.150391,-0.171875 -8.681154,-8.7897839 z" />
   <path id="circle"
      d="m 32,10 c -3.310814,0 -6,2.689186 -6,6 0,3.310814 2.689186,6 6,6 3.310814,0 6,-2.689186 6,-6 0,-3.310814 -2.689186,-6 -6,-6 z m 0,0.488281 c 3.047024,0 5.511719,2.464695 5.511719,5.511719 0,3.047024 -2.464695,5.511719 -5.511719,5.511719 -3.047024,0 -5.511719,-2.464695 -5.511719,-5.511719 0,-3.047024 2.464695,-5.511719 5.511719,-5.511719 z" />
   <text id="text12464"
      style="font-style:normal;font-variant:normal;font-weight:normal;font-stretch:normal;font-size:2.11504px;line-height:1.25;font-family:eurofurence;-inkscape-font-specification:'eurofurence, Normal';font-variant-ligatures:normal;font-variant-caps:normal;font-variant-numeric:normal;font-variant-east-asian:normal;fill:#ffffff;fill-opacity:1;stroke:none;stroke-width:0.052876"
      x="1.1752996" y="1.7365164">
      <tspan id="tspan12462" x="1.1752996" y="1.7365164"
         style="font-style:normal;font-variant:normal;font-weight:normal;font-stretch:normal;font-size:2.11504px;font-family:eurofurence;-inkscape-font-specification:'eurofurence, Normal';font-variant-ligatures:normal;font-variant-caps:normal;font-variant-numeric:normal;font-variant-east-asian:normal;fill:#ffffff;fill-opacity:1;stroke-width:0.052876">
         Technology</tspan>
   </text>
   <g id="text_animated">
      <text opacity="0"
         style="font-style:normal;font-variant:normal;font-weight:normal;font-stretch:normal;font-size:2.11504px;line-height:1.25;font-family:eurofurence;-inkscape-font-specification:'eurofurence, Normal';font-variant-ligatures:normal;font-variant-caps:normal;font-variant-numeric:normal;font-variant-east-asian:normal;opacity:0;fill:#ffffff;fill-opacity:1;stroke:none;stroke-width:0.052876"
         x="1.1752996" y="4.6813011" id="text16858">
         <tspan id="tspan16856" x="1.1752996" y="4.6813011"
            style="font-style:normal;font-variant:normal;font-weight:normal;font-stretch:normal;font-size:2.11504px;font-family:eurofurence;-inkscape-font-specification:'eurofurence, Normal';font-variant-ligatures:normal;font-variant-caps:normal;font-variant-numeric:normal;font-variant-east-asian:normal;fill:#ffffff;fill-opacity:1;stroke-width:0.052876">
            HTML5</tspan>
         <animate id="t1" attributeName="opacity" from="0" to="1" dur="2s" begin="1s;t0.end" fill="freeze" />
         <animate attributeName="opacity" values="1;0" dur="1s" begin="t12.end+2s" fill="freeze" />
      </text>
      <text opacity="0"
         style="font-style:normal;font-variant:normal;font-weight:normal;font-stretch:normal;font-size:2.11504px;line-height:1.25;font-family:eurofurence;-inkscape-font-specification:'eurofurence, Normal';font-variant-ligatures:normal;font-variant-caps:normal;font-variant-numeric:normal;font-variant-east-asian:normal;opacity:0;fill:#ffffff;fill-opacity:1;stroke:none;stroke-width:0.052876"
         x="1.1752996" y="6.7794609" id="text19142">
         <tspan id="tspan19140" x="1.1752996" y="6.7794609"
            style="font-style:normal;font-variant:normal;font-weight:normal;font-stretch:normal;font-size:2.11504px;font-family:eurofurence;-inkscape-font-specification:'eurofurence, Normal';font-variant-ligatures:normal;font-variant-caps:normal;font-variant-numeric:normal;font-variant-east-asian:normal;fill:#ffffff;fill-opacity:1;stroke-width:0.052876">
            CSS3</tspan>
         <animate id="t2" attributeName="opacity" values="0;1" dur="1s" begin="t1.end-1s" fill="freeze" />
         <animate attributeName="opacity" values="1;0" dur="1s" begin="t12.end+2s" fill="freeze" />
      </text>
      <text opacity="0"
         style="font-style:normal;font-variant:normal;font-weight:normal;font-stretch:normal;font-size:2.11504px;line-height:1.25;font-family:eurofurence;-inkscape-font-specification:'eurofurence, Normal';font-variant-ligatures:normal;font-variant-caps:normal;font-variant-numeric:normal;font-variant-east-asian:normal;opacity:0;fill:#ffffff;fill-opacity:1;stroke:none;stroke-width:0.052876"
         x="1.1752996" y="8.8776207" id="text21680">
         <tspan id="tspan21678" x="1.1752996" y="8.8776207"
            style="font-style:normal;font-variant:normal;font-weight:normal;font-stretch:normal;font-size:2.11504px;font-family:eurofurence;-inkscape-font-specification:'eurofurence, Normal';font-variant-ligatures:normal;font-variant-caps:normal;font-variant-numeric:normal;font-variant-east-asian:normal;fill:#ffffff;fill-opacity:1;stroke-width:0.052876">
            SCSS</tspan>
         <animate id="t3" attributeName="opacity" values="0;1" dur="1s" begin="t2.end" fill="freeze" />
         <animate attributeName="opacity" values="1;0" dur="1s" begin="t12.end+2s" fill="freeze" />
      </text>
      <text opacity="0"
         style="font-style:normal;font-variant:normal;font-weight:normal;font-stretch:normal;font-size:2.11504px;line-height:1.25;font-family:eurofurence;-inkscape-font-specification:'eurofurence, Normal';font-variant-ligatures:normal;font-variant-caps:normal;font-variant-numeric:normal;font-variant-east-asian:normal;opacity:0;fill:#ffffff;fill-opacity:1;stroke:none;stroke-width:0.052876"
         x="1.1752996" y="10.97578" id="text27438">
         <tspan id="tspan27436" x="1.1752996" y="10.97578"
            style="font-style:normal;font-variant:normal;font-weight:normal;font-stretch:normal;font-size:2.11504px;font-family:eurofurence;-inkscape-font-specification:'eurofurence, Normal';font-variant-ligatures:normal;font-variant-caps:normal;font-variant-numeric:normal;font-variant-east-asian:normal;fill:#ffffff;fill-opacity:1;stroke-width:0.052876">
            Java Script</tspan>
         <animate id="t4" attributeName="opacity" values="0;1" dur="1s" begin="t3.end" fill="freeze" />
         <animate attributeName="opacity" values="1;0" dur="1s" begin="t12.end+2s" fill="freeze" />
      </text>
      <text opacity="0"
         style="font-style:normal;font-variant:normal;font-weight:normal;font-stretch:normal;font-size:2.11504px;line-height:1.25;font-family:eurofurence;-inkscape-font-specification:'eurofurence, Normal';font-variant-ligatures:normal;font-variant-caps:normal;font-variant-numeric:normal;font-variant-east-asian:normal;opacity:0;fill:#ffffff;fill-opacity:1;stroke:none;stroke-width:0.052876"
         x="1.1752996" y="13.073939" id="text30274">
         <tspan id="tspan30272" x="1.1752996" y="13.073939"
            style="font-style:normal;font-variant:normal;font-weight:normal;font-stretch:normal;font-size:2.11504px;font-family:eurofurence;-inkscape-font-specification:'eurofurence, Normal';font-variant-ligatures:normal;font-variant-caps:normal;font-variant-numeric:normal;font-variant-east-asian:normal;fill:#ffffff;fill-opacity:1;stroke-width:0.052876">
            React</tspan>
         <animate id="t5" attributeName="opacity" values="0;1" dur="1s" begin="t4.end" fill="freeze" />
         <animate attributeName="opacity" values="1;0" dur="1s" begin="t12.end+2s" fill="freeze" />
      </text>
      <text opacity="0"
         style="font-style:normal;font-variant:normal;font-weight:normal;font-stretch:normal;font-size:2.11504px;line-height:1.25;font-family:eurofurence;-inkscape-font-specification:'eurofurence, Normal';font-variant-ligatures:normal;font-variant-caps:normal;font-variant-numeric:normal;font-variant-east-asian:normal;opacity:0;fill:#ffffff;fill-opacity:1;stroke:none;stroke-width:0.052876"
         x="1.1752996" y="15.172099" id="text33518">
         <tspan id="tspan33516" x="1.1752996" y="15.172099"
            style="font-style:normal;font-variant:normal;font-weight:normal;font-stretch:normal;font-size:2.11504px;font-family:eurofurence;-inkscape-font-specification:'eurofurence, Normal';font-variant-ligatures:normal;font-variant-caps:normal;font-variant-numeric:normal;font-variant-east-asian:normal;fill:#ffffff;fill-opacity:1;stroke-width:0.052876">
            Redux/RTK</tspan>
         <animate id="t6" attributeName="opacity" values="0;1" dur="1s" begin="t5.end" fill="freeze" />
         <animate attributeName="opacity" values="1;0" dur="1s" begin="t12.end+2s" fill="freeze" />
      </text>
      <text opacity="0"
         style="font-style:normal;font-variant:normal;font-weight:normal;font-stretch:normal;font-size:2.11504px;line-height:1.25;font-family:eurofurence;-inkscape-font-specification:'eurofurence, Normal';font-variant-ligatures:normal;font-variant-caps:normal;font-variant-numeric:normal;font-variant-east-asian:normal;opacity:0;fill:#ffffff;fill-opacity:1;stroke:none;stroke-width:0.052876"
         x="1.1752996" y="17.27026" id="text36132">
         <tspan id="tspan36130" x="1.1752996" y="17.27026"
            style="font-style:normal;font-variant:normal;font-weight:normal;font-stretch:normal;font-size:2.11504px;font-family:eurofurence;-inkscape-font-specification:'eurofurence, Normal';font-variant-ligatures:normal;font-variant-caps:normal;font-variant-numeric:normal;font-variant-east-asian:normal;fill:#ffffff;fill-opacity:1;stroke-width:0.052876">
            React Native</tspan>
         <animate id="t7" attributeName="opacity" values="0;1" dur="1s" begin="t6.end" fill="freeze" />
         <animate attributeName="opacity" values="1;0" dur="1s" begin="t12.end+2s" fill="freeze" />
      </text>
      <text opacity="0"
         style="font-style:normal;font-variant:normal;font-weight:normal;font-stretch:normal;font-size:2.11504px;line-height:1.25;font-family:eurofurence;-inkscape-font-specification:'eurofurence, Normal';font-variant-ligatures:normal;font-variant-caps:normal;font-variant-numeric:normal;font-variant-east-asian:normal;opacity:0;fill:#ffffff;fill-opacity:1;stroke:none;stroke-width:0.052876"
         x="1.1752996" y="19.36842" id="text38986">
         <tspan id="tspan38984" x="1.1752996" y="19.36842"
            style="font-style:normal;font-variant:normal;font-weight:normal;font-stretch:normal;font-size:2.11504px;font-family:eurofurence;-inkscape-font-specification:'eurofurence, Normal';font-variant-ligatures:normal;font-variant-caps:normal;font-variant-numeric:normal;font-variant-east-asian:normal;fill:#ffffff;fill-opacity:1;stroke-width:0.052876">
            Node.js</tspan>
         <animate id="t8" attributeName="opacity" values="0;1" dur="1s" begin="t7.end" fill="freeze" />
         <animate attributeName="opacity" values="1;0" dur="1s" begin="t12.end+2s" fill="freeze" />
      </text>
      <text opacity="0"
         style="font-style:normal;font-variant:normal;font-weight:normal;font-stretch:normal;font-size:2.11504px;line-height:1.25;font-family:eurofurence;-inkscape-font-specification:'eurofurence, Normal';font-variant-ligatures:normal;font-variant-caps:normal;font-variant-numeric:normal;font-variant-east-asian:normal;opacity:0;fill:#ffffff;fill-opacity:1;stroke:none;stroke-width:0.052876"
         x="1.1752996" y="21.466579" id="text42530">
         <tspan id="tspan42528" x="1.1752996" y="21.466579"
            style="font-style:normal;font-variant:normal;font-weight:normal;font-stretch:normal;font-size:2.11504px;font-family:eurofurence;-inkscape-font-specification:'eurofurence, Normal';font-variant-ligatures:normal;font-variant-caps:normal;font-variant-numeric:normal;font-variant-east-asian:normal;fill:#ffffff;fill-opacity:1;stroke-width:0.052876">
            Express</tspan>
         <animate id="t9" attributeName="opacity" values="0;1" dur="1s" begin="t8.end" fill="freeze" />
         <animate attributeName="opacity" values="1;0" dur="1s" begin="t12.end+2s" fill="freeze" />
      </text>
      <text opacity="0"
         style="font-style:normal;font-variant:normal;font-weight:normal;font-stretch:normal;font-size:2.11504px;line-height:1.25;font-family:eurofurence;-inkscape-font-specification:'eurofurence, Normal';font-variant-ligatures:normal;font-variant-caps:normal;font-variant-numeric:normal;font-variant-east-asian:normal;opacity:0;fill:#ffffff;fill-opacity:1;stroke:none;stroke-width:0.052876"
         x="1.1752996" y="23.564739" id="text57682">
         <tspan id="tspan57680" x="1.1752996" y="23.564739"
            style="font-style:normal;font-variant:normal;font-weight:normal;font-stretch:normal;font-size:2.11504px;font-family:eurofurence;-inkscape-font-specification:'eurofurence, Normal';font-variant-ligatures:normal;font-variant-caps:normal;font-variant-numeric:normal;font-variant-east-asian:normal;fill:#ffffff;fill-opacity:1;stroke-width:0.052876">
            REST API</tspan>
         <animate id="t10" attributeName="opacity" values="0;1" dur="1s" begin="t9.end" fill="freeze" />
         <animate attributeName="opacity" values="1;0" dur="1s" begin="t12.end+2s" fill="freeze" />
      </text>
      <text opacity="0"
         style="font-style:normal;font-variant:normal;font-weight:normal;font-stretch:normal;font-size:2.11504px;line-height:1.25;font-family:eurofurence;-inkscape-font-specification:'eurofurence, Normal';font-variant-ligatures:normal;font-variant-caps:normal;font-variant-numeric:normal;font-variant-east-asian:normal;opacity:0;fill:#ffffff;fill-opacity:1;stroke:none;stroke-width:0.052876"
         x="1.1752996" y="25.662899" id="text62942">
         <tspan id="tspan62940" x="1.1752996" y="25.662899"
            style="font-style:normal;font-variant:normal;font-weight:normal;font-stretch:normal;font-size:2.11504px;font-family:eurofurence;-inkscape-font-specification:'eurofurence, Normal';font-variant-ligatures:normal;font-variant-caps:normal;font-variant-numeric:normal;font-variant-east-asian:normal;fill:#ffffff;fill-opacity:1;stroke-width:0.052876">
            Mongo DB</tspan>
         <animate id="t11" attributeName="opacity" values="0;1" dur="1s" begin="t10.end" fill="freeze" />
         <animate attributeName="opacity" values="1;0" dur="1s" begin="t12.end+2s" fill="freeze" />
      </text>
      <text opacity="0"
         style="font-style:normal;font-variant:normal;font-weight:normal;font-stretch:normal;font-size:2.11504px;line-height:1.25;font-family:eurofurence;-inkscape-font-specification:'eurofurence, Normal';font-variant-ligatures:normal;font-variant-caps:normal;font-variant-numeric:normal;font-variant-east-asian:normal;opacity:0;fill:#ffffff;fill-opacity:1;stroke:none;stroke-width:0.052876"
         x="1.1752996" y="27.662899" id="text67665">
         <tspan id="tspan67663" x="1.1752996" y="27.662899"
            style="font-style:normal;font-variant:normal;font-weight:normal;font-stretch:normal;font-size:2.11504px;font-family:eurofurence;-inkscape-font-specification:'eurofurence, Normal';font-variant-ligatures:normal;font-variant-caps:normal;font-variant-numeric:normal;font-variant-east-asian:normal">
            Git/GitHub</tspan>
         <animate id="t12" attributeName="opacity" values="0;1" dur="1s" begin="t11.end" fill="freeze" />
         <animate id="t0" attributeName="opacity" values="1;0" dur="1s" begin="t12.end+2s" fill="freeze" />
      </text>
   </g>
   <g id="logo_animated">
      <path id="bite-logo" opacity="0"
         d="m 32.392077,11.859816 c -0.181906,6.79e-4 -0.722254,0.03471 -0.817217,0.05484 -0.626687,0.132947 -0.89454,0.245051 -1.079209,0.45171 -0.06876,0.07695 -0.234425,0.260704 -0.368147,0.408325 -0.24638,0.271992 -0.355243,0.448595 -0.392236,0.636395 -0.01389,0.07053 -0.02581,0.07848 -0.382161,0.253702 -0.4903,0.241094 -0.556492,0.284903 -0.614295,0.406904 -0.162301,0.342559 -0.169103,0.349204 -0.422786,0.412021 -0.247965,0.0614 -0.306288,0.09501 -0.735641,0.423802 -0.217264,0.166375 -0.265276,0.308888 -0.157546,0.467638 0.05503,0.08109 0.10827,0.278228 0.135607,0.502167 0.03705,0.303462 0.252606,0.586574 0.551286,0.724022 0.194147,0.08935 0.202564,0.08633 0.13004,-0.04692 -0.08059,-0.148084 -0.07479,-0.183047 0.03307,-0.199754 0.193245,-0.02993 0.412005,-0.101397 0.646956,-0.211373 0.276124,-0.129242 0.259122,-0.132419 0.342999,0.06456 0.03389,0.07961 0.10698,0.204626 0.162419,0.277836 0.15142,0.199949 0.147777,0.192107 0.102619,0.219173 -0.02188,0.01312 -0.100545,0.06455 -0.174769,0.114279 -0.461975,0.309527 -0.812223,0.44777 -0.932389,0.367983 -0.14208,-0.09433 -0.138113,-0.09941 -0.09031,0.115132 0.14178,0.63629 0.454877,0.930231 0.99536,0.934421 0.0042,4.1e-5 0.0032,0.0913 -0.002,0.202843 -0.0577,1.29342 0.712664,1.819693 2.505318,1.598032 0,0 -0.232392,-0.34691 -0.01511,-0.594427 0.0954,-0.108681 0.192637,-0.221001 0.216086,-0.249602 0.04261,-0.052 0.22505,0.326855 0.225757,0.510072 0.19205,0.542523 1.006446,0.336244 1.006446,0.336244 -0.309114,-0.123492 -0.62822,-0.719899 -0.03376,-1.169125 0.04576,-0.03351 0.25638,-0.234341 0.468044,-0.446266 0.367285,-0.367745 0.441744,-0.43211 0.745148,-0.643951 0.146697,-0.102427 0.136013,-0.122629 -0.100383,-0.189801 -0.135466,-0.03849 -0.139741,-0.05118 -0.0388,-0.115376 0.285071,-0.181292 0.906484,-0.241139 1.363465,-0.131342 0.251946,0.06053 0.285011,0.06361 0.604137,0.05654 0.424914,-0.0094 0.433764,-0.01831 0.166239,-0.16693 -0.628327,-0.349075 -0.974833,-1.022915 -0.955546,-1.858157 0.0083,-0.359675 0.005,-0.426424 -0.02467,-0.483602 -0.02571,-0.04971 -0.02765,-0.06634 -0.0077,-0.0663 0.07758,1.58e-4 0.652165,0.06572 0.790932,0.09027 0.08866,0.01568 0.161202,0.02421 0.161202,0.01897 0,-0.547437 -1.611957,-2.112654 -2.428414,-2.35801 -0.186547,-0.05606 -0.187003,-0.05189 0.0191,-0.187201 0.199071,-0.130693 0.415009,-0.299865 0.413524,-0.323986 -0.0043,-0.06991 -0.453244,-0.131036 -1.194341,-0.162582 -0.410358,-0.01746 -0.751996,-0.03537 -0.759205,-0.03982 -0.004,-0.0024 -0.02537,-0.0035 -0.05907,-0.0033 z m -0.35092,0.282629 c 0.04093,3.2e-4 0.07792,0.003 0.10989,0.0084 0.04345,0.0073 0.125816,0.02128 0.183017,0.031 0.0572,0.0097 0.155543,0.03685 0.218563,0.06029 0.06302,0.02343 0.191562,0.05471 0.285636,0.06951 0.184993,0.0291 0.192134,0.04134 0.04493,0.07694 -0.183432,0.04436 -0.440016,0.178311 -0.5276,0.275439 -0.09276,0.102868 -0.06629,0.11914 0.198129,0.121876 0.07282,8.22e-4 0.238536,0.03684 0.447203,0.09738 0.182337,0.0529 0.422235,0.122467 0.533084,0.154618 0.319568,0.09269 0.440174,0.1698 0.744864,0.476251 0.37181,0.373957 0.411393,0.437737 0.271702,0.437737 -0.158501,0 -0.728956,0.182983 -0.828919,0.265892 -0.07545,0.06258 -0.102047,0.03109 0.325774,0.38594 0.331639,0.275065 0.52802,0.50733 0.606738,0.717725 0.211712,0.565853 0.200152,0.926805 -0.04574,1.430008 -0.09826,0.201087 -0.10161,0.198941 -0.172616,-0.110094 -0.07308,-0.318024 -0.278583,-0.730394 -0.52622,-1.055891 -0.09848,-0.129444 -0.334749,-0.273208 -0.535521,-0.325855 -0.204815,-0.0537 -0.208357,-0.05163 -0.11826,0.07028 0.141971,0.192109 0.273621,0.421964 0.30794,0.537633 0.01833,0.06181 0.05744,0.159169 0.08689,0.216371 0.09269,0.179974 0.0503,0.636749 -0.09266,0.998406 -0.01809,0.04576 -0.0399,0.145024 -0.04846,0.220594 -0.02486,0.219254 -0.115083,0.394126 -0.133007,0.257807 -0.05673,-0.431428 -0.06994,-0.483258 -0.154579,-0.606899 -0.1728,-0.252424 -0.453265,-0.414406 -0.376961,-0.217711 0.216881,0.559068 0.194516,0.822913 -0.108755,1.282498 -0.07539,0.114254 -0.145923,0.235498 -0.156732,0.269467 -0.03693,0.116077 -0.561646,-0.443167 -0.81356,-0.867146 -0.311001,-0.523421 -0.55058,-1.306649 -0.493882,-1.614487 0.0077,-0.04186 0.0221,-0.202491 0.03202,-0.356932 0.05808,-0.904958 0.118508,-1.035344 0.395609,-0.854024 0.01716,0.01122 0.100109,0.04968 0.184357,0.08543 0.08425,0.03575 0.210614,0.107292 0.280801,0.159008 0.150332,0.110764 0.165717,0.09446 0.08897,-0.09442 -0.132531,-0.32616 -0.695779,-0.849781 -0.979637,-0.910738 -0.215796,-0.04634 -0.511081,-0.02781 -0.510376,0.03205 8.9e-5,0.0067 0.06497,0.0476 0.144221,0.09075 0.153526,0.08361 0.261256,0.197587 0.293721,0.310783 0.06941,0.242034 -0.326605,0.771566 -0.672063,0.89863 -0.05434,0.01999 -0.0988,0.03935 -0.0988,0.04298 0,0.0096 0.321314,0.444354 0.395731,0.5354 0.254905,0.311864 0.237384,0.798714 -0.03542,0.984026 -0.335413,0.227836 -0.980601,0.873152 -1.165496,1.165739 -0.05152,0.08155 -0.06501,0.09073 -0.120413,0.08202 -0.03432,-0.0054 -0.169438,-0.02544 -0.300221,-0.04457 -0.226063,-0.03307 -0.242033,-0.03869 -0.323865,-0.114115 -0.07376,-0.06799 -0.215995,-0.284258 -0.194392,-0.295548 0.004,-0.0021 0.07208,-0.03658 0.151289,-0.07662 0.07921,-0.04004 0.198244,-0.107518 0.264552,-0.149948 0.06631,-0.04242 0.151263,-0.09291 0.188785,-0.112207 0.03753,-0.01929 0.119731,-0.07435 0.182651,-0.122281 0.06292,-0.04794 0.161202,-0.113582 0.218401,-0.145886 0.408999,-0.230976 0.421123,-0.258669 0.211415,-0.48283 -0.160666,-0.171738 -0.320625,-0.416346 -0.442612,-0.676858 -0.0516,-0.11019 -0.104568,-0.103691 -0.453662,0.05557 -0.857357,0.391146 -1.140903,0.375521 -1.186217,-0.06541 -0.0133,-0.129456 -0.0133,-0.129472 0.07626,-0.15202 0.10496,-0.02643 0.327564,-0.216488 0.293476,-0.250576 -0.01131,-0.01131 -0.06657,-0.02843 -0.12281,-0.03798 -0.104159,-0.01772 -0.342259,-0.118333 -0.340519,-0.143893 0.0013,-0.01932 0.277302,-0.230619 0.404667,-0.309808 0.07121,-0.04427 0.172868,-0.07938 0.322401,-0.111314 0.181491,-0.03876 0.227434,-0.05662 0.271905,-0.105789 0.08035,-0.08884 0.296081,-0.08798 0.391952,0.0015 0.04,0.03736 0.105048,0.06935 0.168878,0.08304 0.05711,0.01225 0.137597,0.03639 0.178873,0.05362 0.196715,0.08219 0.422945,-0.12165 0.331422,-0.298636 -0.09817,-0.189849 -0.342176,-0.31942 -0.497579,-0.264226 -0.283172,0.100576 -0.357797,0.107268 -0.32821,0.02946 0.03223,-0.08477 0.0899,-0.121059 0.564365,-0.355389 0.351466,-0.173583 0.477121,-0.282385 0.479134,-0.414865 0.0013,-0.08435 0.130157,-0.300163 0.263739,-0.441637 0.184288,-0.195173 0.246055,-0.186852 0.161769,0.02181 -0.05402,0.133739 -0.105214,0.408593 -0.08283,0.444806 0.008,0.01301 0.07272,-0.0335 0.156936,-0.112939 0.197355,-0.18618 0.485997,-0.375354 0.758024,-0.496809 0.316386,-0.141262 0.310818,-0.21075 -0.01425,-0.159902 -0.806716,0.126186 -0.01068,-0.211338 -0.14351,-0.2037 -0.132853,0.0076 -0.181853,-0.01266 -0.377387,0.113473 -0.09943,0.06413 -0.124015,0.0032 -0.03575,-0.08861 0.17791,-0.185081 0.943135,-0.406694 1.338845,-0.403733 z m -0.807183,4.844477 c 0.01327,-3.78e-4 0.02581,0.04775 0.02746,0.12659 8.24e-4,0.04004 0.02841,0.138691 0.06123,0.219214 0.03282,0.08052 0.06982,0.193734 0.08223,0.251591 0.05028,0.234397 0.163979,0.44539 0.544947,1.011202 0.09755,0.144879 0.08477,0.147797 -0.09807,0.02242 -0.344755,-0.236392 -0.585701,-0.312171 -0.573792,-0.180457 0.03254,0.359798 0.135745,0.801411 0.206336,0.882828 0.02481,0.0286 0.02276,0.04082 -0.01467,0.0884 -0.02388,0.03036 -0.04977,0.05398 -0.05753,0.05249 -0.0077,-0.0015 -0.05617,-0.01475 -0.107657,-0.0295 -0.05148,-0.01474 -0.189503,-0.01366 -0.229542,-0.01469 -0.174608,-0.0044 -0.309169,-0.02603 -0.453428,-0.100433 l -0.229764,-0.157081 c 0.119874,0.271638 0.12667,0.243158 0.347028,0.387821 0.15815,0.103826 0.158167,0.103807 -0.0073,0.101644 -0.09099,-0.0012 -0.232717,-0.01846 -0.314967,-0.03839 -0.353984,-0.08574 -0.543876,-0.414164 -0.52175,-0.90249 0.111307,-0.744156 0.282867,-0.315664 0.334303,-0.183613 l 0.209756,0.156649 c -0.05992,-0.149241 -0.07057,-0.21366 -0.10616,-0.35601 -0.05686,-0.155638 -0.02777,-0.438222 0.06476,-0.629203 0.09423,-0.194504 0.123708,-0.198962 0.137475,-0.0208 0.01458,0.188606 0.05919,0.253204 0.228882,0.331422 0.17146,0.07903 0.16628,0.07938 0.16628,-0.01121 0,-0.106547 0.04959,-0.287952 0.167456,-0.612629 0.05631,-0.155107 0.108747,-0.313788 0.116514,-0.352627 0.0059,-0.02942 0.013,-0.04293 0.01995,-0.04314 z">
         <animate id="bite_1" attributeName="opacity" values="0;1" dur="1s" begin="0s;mongo_2.end" fill="freeze" />
         <animate id="bite_2" attributeName="opacity" values="1;0" dur="1s" begin="bite_1.end+2s" fill="freeze" />
      </path>
      <g id="html" transform="matrix(0.01535597,0,0,0.01535597,28.068872,12.687588)" opacity="0">
         <polygon class="st0"
            points="256,407.465 365.262,379.683 380.403,208.788 188.801,208.788 183.74,151.682 385.467,151.682 390.52,94.696 121.481,94.696 136.224,261.016 193.431,261.016 211.237,261.016 318.569,261.016 312.062,334.41 256,348.67 199.938,334.41 196.059,290.703 138.856,290.703 146.742,379.683 "
            id="polygon4" />
         <path class="st0"
            d="M 20.366,0 21.35,10.627 63.232,462.988 256,512 448.767,462.988 491.634,0 Z M 402.505,423.462 256,460.713 109.495,423.462 74.888,49.711 h 362.223 z"
            id="path6" />
         <animate id="html_1" attributeName="opacity" values="0;1" dur="1s" begin="bite_2.end" fill="freeze" />
         <animate id="html_2" attributeName="opacity" values="1;0" dur="1s" begin="html_1.end+2s" fill="freeze" />
      </g>
      <g id="css3" transform="matrix(0.01557825,0,0,0.01557825,28.229522,12.761559)" opacity="0">
         <path
            d="m 129.03954,105.06722 -0.19836,56.30799 h 204.33273 l -0.0166,36.27898 h -204.3327 l -0.26515,55.93009 H 332.8922 l 0.12238,63.86611 -77.13563,30.61038 -76.79053,-30.61038 0.19937,-27.58714 h -50.40658 l 0.0468,67.26727 126.9485,50.26149 127.11422,-50.26149 0.44981,-252.0633 z"
            id="path2-5" style="stroke-width:0.357555" />
         <path class="st0"
            d="M 20.366,0 21.35,10.627 63.232,462.988 256,512 448.767,462.988 491.634,0 Z M 402.505,423.462 256,460.713 109.495,423.462 74.888,49.711 h 362.223 z"
            id="path6-8" />
         <animate id="css3_1" attributeName="opacity" values="0;1" dur="1s" begin="html_2.end" fill="freeze" />
         <animate id="css3_2" attributeName="opacity" values="1;0" dur="1s" begin="css3_1.end+2s" fill="freeze" />
      </g>
      <g id="js_logo" transform="matrix(0.0151376,0,0,0.0151376,28.124774,12.785979)" opacity="0">
         <path class="st0"
            d="M 20.366,0 21.35,10.627 63.232,462.988 256,512 448.767,462.988 491.634,0 Z M 402.505,423.462 256,460.713 109.495,423.462 74.888,49.711 h 362.223 z"
            id="path6-0" />
         <path
            d="m 281.25971,107.72316 h 105.35788 v 43.31105 h -58.42454 c -2.35734,0 -4.26667,1.91019 -4.26667,4.26667 v 34.13333 c 0,2.35648 1.90933,4.26667 4.26667,4.26667 h 38.4 c 11.7824,0 21.33333,9.55136 21.33333,21.33333 v 64 c 0,5.6576 -2.24853,11.0848 -6.24853,15.0848 l -64,64 c -8.33067,8.33066 -21.83894,8.33066 -30.1696,0 -8.33067,-8.33067 -8.33067,-21.83894 0,-30.1696 l 56.50133,-56.50133 c 0.8,-0.8 1.25013,-1.88587 1.25013,-3.01867 v -27.7952 c 0,-2.35733 -1.90933,-4.26667 -4.26666,-4.26667 h -38.4 c -11.7824,0 -21.33334,-9.55093 -21.33334,-21.33333 z"
            id="path52" />
         <path
            d="m 238.59305,107.72316 h -42.66667 v 173.50625 c 0,3.8016 -4.59584,5.70667 -7.28362,3.01867 l -12.8,-12.8 c -0.80022,-0.8 -1.24971,-1.88587 -1.24971,-3.01867 v -29.05257 l -42.66667,0.27763 v 39.37974 c 0,5.6576 2.24768,11.0848 6.24832,15.0848 l 64,64 c 6.10134,6.10133 15.27702,7.92746 23.24928,4.62506 7.97227,-3.3024 13.16907,-11.08053 13.16907,-19.70986 z"
            id="path54" />
         <animate id="js_logo_1" attributeName="opacity" values="0;1" dur="1s" begin="css3_2.end" fill="freeze" />
         <animate id="js_logo_2" attributeName="opacity" values="1;0" dur="1s" begin="js_logo_1.end+2s" fill="freeze" />
      </g>
      <g id="react" transform="matrix(0.01902148,0,0,0.01902148,27.130311,11.130512)" opacity="0">
         <path
            d="m 410.66,180.72 v 0 q -7.67,-2.62 -15.45,-4.88 1.29,-5.25 2.38,-10.56 c 11.7,-56.9 4.05,-102.74 -22.06,-117.83 -25,-14.48 -66,0.61 -107.36,36.69 q -6.1,5.34 -11.95,11 -3.9,-3.76 -8,-7.36 C 204.87,49.2 161.42,32.95 135.34,48.09 c -25,14.51 -32.43,57.6 -21.9,111.53 q 1.58,8 3.55,15.93 c -6.15,1.75 -12.09,3.62 -17.77,5.6 C 48.46,198.9 16,226.73 16,255.59 c 0,29.82 34.84,59.72 87.77,77.85 q 6.44,2.19 13,4.07 -2.13,8.49 -3.77,17.17 c -10,53 -2.2,95.07 22.75,109.49 25.77,14.89 69,-0.41 111.14,-37.31 q 5,-4.38 10,-9.25 6.32,6.11 13,11.86 c 40.8,35.18 81.09,49.39 106,34.93 25.75,-14.94 34.12,-60.14 23.25,-115.13 q -1.25,-6.3 -2.88,-12.86 4.56,-1.35 8.93,-2.79 c 55,-18.27 90.83,-47.81 90.83,-78 -0.02,-29 -33.52,-57.01 -85.36,-74.9 z m -129,-81.08 c 35.43,-30.91 68.55,-43.11 83.65,-34.39 v 0 c 16.07,9.29 22.32,46.75 12.22,95.88 q -1,4.8 -2.16,9.57 A 487.83,487.83 0 0 0 311.19,160.54 481.27,481.27 0 0 0 270.62,109.79 Q 276,104.57 281.64,99.64 Z M 157.73,280.25 q 6.51,12.6 13.61,24.89 7.23,12.54 15.07,24.71 a 435.28,435.28 0 0 1 -44.24,-7.13 c 4.24,-13.72 9.46,-27.97 15.56,-42.47 z m 0,-48.33 c -6,-14.19 -11.08,-28.15 -15.25,-41.63 13.7,-3.07 28.3,-5.58 43.52,-7.48 q -7.65,11.94 -14.72,24.23 -7.07,12.29 -13.58,24.88 z m 10.9,24.17 q 9.48,-19.77 20.42,-38.78 v 0 q 10.93,-19 23.27,-37.13 c 14.28,-1.08 28.92,-1.65 43.71,-1.65 14.79,0 29.52,0.57 43.79,1.66 q 12.21,18.09 23.13,37 10.92,18.91 20.69,38.6 Q 334,275.63 323,294.73 v 0 q -10.91,19 -23,37.24 c -14.25,1 -29,1.55 -44,1.55 -15,0 -29.47,-0.47 -43.46,-1.38 Q 200.11,313.95 189.08,294.85 178.05,275.75 168.6,256.09 Z M 340.75,305 q 7.25,-12.58 13.92,-25.49 v 0 a 440.41,440.41 0 0 1 16.12,42.32 434.44,434.44 0 0 1 -44.79,7.65 q 7.62,-12.09 14.75,-24.48 z m 13.72,-73.07 q -6.64,-12.65 -13.81,-25 v 0 q -7,-12.18 -14.59,-24.06 c 15.31,1.94 30,4.52 43.77,7.67 a 439.89,439.89 0 0 1 -15.37,41.39 z M 256.23,124.48 v 0 a 439.75,439.75 0 0 1 28.25,34.18 q -28.35,-1.35 -56.74,0 c 9.33,-12.34 18.88,-23.79 28.49,-34.18 z M 145.66,65.86 c 16.06,-9.32 51.57,4 89,37.27 2.39,2.13 4.8,4.36 7.2,6.67 a 491.37,491.37 0 0 0 -40.86,50.71 499.12,499.12 0 0 0 -64.06,10 q -1.83,-7.36 -3.3,-14.82 v 0 c -9.05,-46.23 -3.06,-81.08 12.02,-89.83 z M 122.25,317.71 Q 116.25,316 110.4,314 C 87,306 67.67,295.56 54.4,284.19 42.52,274 36.5,263.83 36.5,255.59 c 0,-17.51 26.06,-39.85 69.52,-55 q 8.19,-2.85 16.52,-5.21 a 493.54,493.54 0 0 0 23.4,60.75 502.46,502.46 0 0 0 -23.69,61.58 z m 111.13,93.67 c -18.63,16.32 -37.29,27.89 -53.74,33.72 v 0 c -14.78,5.23 -26.55,5.38 -33.66,1.27 -15.14,-8.75 -21.44,-42.54 -12.85,-87.86 q 1.53,-8 3.5,-16 a 480.85,480.85 0 0 0 64.69,9.39 501.2,501.2 0 0 0 41.2,51 c -2.98,2.93 -6.03,5.75 -9.14,8.48 z m 23.42,-23.22 c -9.72,-10.51 -19.42,-22.14 -28.88,-34.64 q 13.79,0.54 28.08,0.54 c 9.78,0 19.46,-0.21 29,-0.64 a 439.33,439.33 0 0 1 -28.2,34.74 z m 124.52,28.59 c -2.86,15.44 -8.61,25.74 -15.72,29.86 -15.13,8.78 -47.48,-2.63 -82.36,-32.72 -4,-3.44 -8,-7.13 -12.07,-11 a 484.54,484.54 0 0 0 40.23,-51.2 477.84,477.84 0 0 0 65,-10.05 q 1.47,5.94 2.6,11.64 v 0 c 4.81,24.3 5.5,46.28 2.32,63.47 z m 17.4,-102.64 v 0 c -2.62,0.87 -5.32,1.71 -8.06,2.53 a 483.26,483.26 0 0 0 -24.31,-60.94 481.52,481.52 0 0 0 23.36,-60.06 c 4.91,1.43 9.68,2.93 14.27,4.52 44.42,15.32 71.52,38 71.52,55.43 0,18.6 -29.27,42.74 -76.78,58.52 z"
            id="path4-1" />
         <path d="m 256,298.55 a 43,43 0 1 0 -42.86,-43 42.91,42.91 0 0 0 42.86,43 z" id="path6-4" />
         <animate id="react_1" attributeName="opacity" values="0;1" dur="1s" begin="js_logo_2.end" fill="freeze" />
         <animate id="react_2" attributeName="opacity" values="1;0" dur="1s" begin="react_1.end+2s" fill="freeze" />
      </g>
      <g id="redux" transform="matrix(0.32908058,0,0,0.32908058,27.839493,11.520047)" opacity="0">
         <path
            d="m 17.54,16.745 c 0.893,-0.089 1.585,-0.837 1.585,-1.746 0,-0.036 -0.001,-0.072 -0.003,-0.108 v 0.005 C 19.075,13.933 18.288,13.17 17.321,13.16 h -0.065 c -0.968,0.036 -1.739,0.829 -1.739,1.802 0,0.022 0,0.044 0.001,0.067 v -0.003 c 0.026,0.473 0.22,0.897 0.522,1.217 l -10e-4,-10e-4 c -1.187,2.214 -3.001,3.96 -5.204,5.031 l -0.069,0.03 c -1.192,0.66 -2.614,1.048 -4.127,1.048 -0.383,0 -0.761,-0.025 -1.13,-0.073 l 0.044,0.005 C 4.192,22.152 3.02,21.439 2.276,20.399 L 2.267,20.385 C 1.73,19.63 1.409,18.69 1.409,17.674 c 0,-0.837 0.218,-1.623 0.601,-2.305 L 1.998,15.393 C 2.545,14.357 3.291,13.495 4.192,12.831 L 4.213,12.817 C 4.042,12.364 3.889,11.818 3.781,11.257 L 3.77,11.191 c -4.683,3.349 -4.208,7.93 -2.786,10.095 1.243,1.586 3.159,2.596 5.311,2.596 0.098,0 0.195,-0.002 0.292,-0.006 H 6.573 c 0.035,10e-4 0.077,10e-4 0.119,10e-4 0.647,0 1.276,-0.075 1.88,-0.216 l -0.056,0.011 c 4.008,-0.734 7.29,-3.317 8.974,-6.814 l 0.032,-0.074 z"
            id="path2-10" />
         <path
            d="m 23.18,12.799 c -2.403,-2.74 -5.91,-4.46 -9.82,-4.46 -0.119,0 -0.239,0.002 -0.357,0.005 h 0.018 -0.538 c -0.283,-0.567 -0.86,-0.95 -1.526,-0.95 -0.02,0 -0.039,0 -0.059,10e-4 h 0.003 -0.039 c -0.966,0.014 -1.744,0.8 -1.744,1.768 0,0.029 10e-4,0.057 0.002,0.085 V 9.244 c 0.045,0.963 0.832,1.728 1.8,1.738 h 0.079 c 0.714,-0.028 1.317,-0.472 1.577,-1.094 L 12.58,9.876 h 0.585 c 2.554,0.003 4.924,0.787 6.884,2.128 l -0.042,-0.027 c 1.531,0.98 2.713,2.388 3.392,4.055 l 0.021,0.058 c 0.26,0.542 0.411,1.178 0.411,1.849 0,0.71 -0.169,1.38 -0.47,1.972 l 0.011,-0.025 c -0.777,1.586 -2.379,2.658 -4.231,2.658 -0.068,0 -0.135,-0.001 -0.202,-0.004 h 0.01 c -1.137,-0.024 -2.21,-0.274 -3.183,-0.707 l 0.052,0.021 c -0.379,0.316 -1.011,0.836 -1.47,1.153 1.214,0.596 2.638,0.959 4.143,0.994 h 0.012 c 0.059,0.002 0.128,0.003 0.197,0.003 2.552,0 4.787,-1.355 6.026,-3.384 l 0.018,-0.031 c 0.342,-0.811 0.54,-1.753 0.54,-2.742 0,-1.98 -0.796,-3.774 -2.085,-5.079 l 10e-4,10e-4 -0.015,0.032 z"
            id="path4-3" />
         <path
            d="m 6.844,17.316 c 0.044,0.964 0.833,1.731 1.803,1.738 h 0.064 c 0.968,-0.033 1.741,-0.827 1.741,-1.8 0,-0.99 -0.799,-1.794 -1.788,-1.801 H 8.597 c -0.01,-10e-4 -0.022,-10e-4 -0.033,-10e-4 -0.073,0 -0.143,0.011 -0.209,0.033 L 8.36,15.484 C 7.29,13.743 6.657,11.634 6.657,9.377 6.657,9.013 6.673,8.653 6.706,8.298 L 6.703,8.344 C 6.794,6.438 7.494,4.711 8.61,3.337 L 8.598,3.353 C 9.589,2.282 10.985,1.6 12.542,1.55 h 0.009 c 3.412,-0.064 4.835,4.188 4.945,5.878 l 1.582,0.473 C 18.71,2.72 15.488,0 12.407,0 9.275,0.163 6.676,2.27 5.785,5.131 L 5.771,5.183 C 5.333,6.445 5.079,7.899 5.079,9.412 5.079,12 5.82,14.415 7.1,16.456 L 7.068,16.401 c -0.143,0.216 -0.228,0.481 -0.228,0.766 0,0.053 0.003,0.105 0.009,0.156 L 6.848,17.317 Z"
            id="path6-83" />
         <animate id="redux_1" attributeName="opacity" values="0;1" dur="1s" begin="react_2.end" fill="freeze" />
         <animate id="redux_2" attributeName="opacity" values="1;0" dur="1s" begin="redux_1.end+2s" fill="freeze" />
      </g>
      <path id="node" opacity="0"
         d="m 31.789149,11.593555 c 0.130288,-0.076 0.291401,-0.076 0.421689,0 l 3.467148,2.022497 c 0.128548,0.07498 0.207606,0.212617 0.207606,0.361444 v 4.044991 c 0,0.148855 -0.07906,0.286441 -0.207606,0.361426 l -3.467148,2.022495 c -0.130288,0.07605 -0.291401,0.07605 -0.421689,0 l -0.866785,-0.505594 c -0.19962,-0.116441 -0.267046,-0.372698 -0.150601,-0.572325 0.116447,-0.199571 0.372668,-0.267025 0.572291,-0.150585 l 0.655941,0.382627 3.048701,-1.778401 v -3.564289 l -3.048701,-1.778402 -3.048689,1.778402 v 3.564289 l 0.623096,0.363491 c 0.192027,0.06159 0.429219,0.07666 0.596404,0.0027 0.07756,-0.03426 0.1476,-0.09006 0.203042,-0.189696 0.05835,-0.104891 0.111764,-0.279467 0.111764,-0.5639 v -2.929131 c 0,-0.2311 0.187347,-0.418448 0.418447,-0.418448 0.231101,0 0.418447,0.187348 0.418447,0.418448 v 2.929131 c 0,0.385084 -0.07194,0.709463 -0.21733,0.970743 -0.148275,0.266522 -0.360315,0.444168 -0.596176,0.548388 -0.449858,0.198735 -0.946633,0.117277 -1.250839,0.008 -0.02406,-0.0086 -0.04729,-0.01947 -0.06937,-0.03236 l -0.866779,-0.505619 c -0.128557,-0.07497 -0.207603,-0.212558 -0.207603,-0.361415 v -4.04499 c 0,-0.148827 0.07905,-0.286457 0.207606,-0.361444 z m 0.368329,2.89067 c 0.221408,-0.263578 0.567208,-0.436988 1.036438,-0.436988 0.435464,0 0.767153,0.14928 0.991608,0.386723 0.158732,0.167954 0.151309,0.432792 -0.01668,0.591541 -0.167938,0.158752 -0.432788,0.151292 -0.591518,-0.01666 -0.04888,-0.05169 -0.15131,-0.124709 -0.383409,-0.124709 -0.246817,0 -0.348527,0.08231 -0.395623,0.138378 -0.06079,0.07237 -0.08096,0.163931 -0.08096,0.210329 0,0.0464 0.02016,0.137953 0.08096,0.210328 0.0471,0.05607 0.148806,0.138377 0.395623,0.138377 0.04128,0 0.08118,0.0059 0.118895,0.01714 0.345638,0.04982 0.609037,0.204827 0.789637,0.419848 0.207718,0.247274 0.277069,0.539294 0.277069,0.748614 0,0.209317 -0.06936,0.501354 -0.277069,0.748629 -0.221386,0.263566 -0.567189,0.436971 -1.036403,0.436971 -0.435471,0 -0.767182,-0.149302 -0.991625,-0.386701 -0.158749,-0.167993 -0.151289,-0.432843 0.01667,-0.591562 0.167949,-0.158754 0.432789,-0.151289 0.591541,0.01666 0.04886,0.05168 0.151316,0.124708 0.38342,0.124708 0.246823,0 0.348533,-0.0823 0.395623,-0.138378 0.06076,-0.07237 0.08095,-0.16393 0.08095,-0.210328 0,-0.0464 -0.02019,-0.137954 -0.08095,-0.210329 -0.04709,-0.05606 -0.1488,-0.138376 -0.395623,-0.138376 -0.0413,0 -0.08122,-0.0059 -0.118911,-0.01714 -0.345643,-0.04981 -0.609037,-0.204826 -0.789655,-0.419848 -0.207707,-0.247274 -0.277041,-0.539294 -0.277041,-0.748612 0,-0.209319 0.06934,-0.501339 0.277041,-0.748614 z">
         <animate id="node_1" attributeName="opacity" values="0;1" dur="1s" begin="redux_2.end" fill="freeze" />
         <animate id="node_2" attributeName="opacity" values="1;0" dur="1s" begin="node_1.end+2s" fill="freeze" />
      </path>
      <path id="git" opacity="0"
         d="m 36.224118,15.608494 -3.834253,-3.833959 c -0.102481,-0.102188 -0.243904,-0.165434 -0.400261,-0.165434 -0.156356,0 -0.297779,0.06325 -0.400261,0.165434 v 0 l -0.794374,0.795838 1.009877,1.009877 c 0.06442,-0.02255 0.138495,-0.03543 0.215796,-0.03543 0.371567,0 0.672568,0.301001 0.672568,0.672567 0,0.07877 -0.01347,0.154015 -0.03836,0.224288 l 0.0015,-0.0047 0.97269,0.973275 c 0.065,-0.02313 0.140252,-0.0366 0.218431,-0.0366 0.371274,0 0.672275,0.301002 0.672275,0.672276 0,0.371274 -0.301001,0.672275 -0.672275,0.672275 -0.371274,0 -0.672276,-0.301001 -0.672276,-0.672275 0,-0.09165 0.01845,-0.178903 0.05153,-0.258545 l -0.0017,0.0044 -0.910617,-0.905932 v 2.387514 c 0.223701,0.11273 0.374496,0.340529 0.374496,0.603466 0,0.37186 -0.301588,0.673447 -0.673447,0.673447 -0.371859,0 -0.673447,-0.301587 -0.673447,-0.673447 0,-0.185636 0.07495,-0.353413 0.196471,-0.475219 v 0 c 0.06178,-0.06178 0.135275,-0.111851 0.216967,-0.146987 l 0.0044,-0.0017 v -2.410938 c -0.24654,-0.103653 -0.416365,-0.343458 -0.416365,-0.622499 0,-0.0937 0.01904,-0.182709 0.05358,-0.263815 l -0.0017,0.0044 -0.992309,-0.996994 -2.629369,2.627612 c -0.101895,0.102774 -0.164556,0.244197 -0.164556,0.400555 0,0.156356 0.06295,0.29778 0.164849,0.400553 l 3.834545,3.833375 c 0.102188,0.10248 0.243611,0.165726 0.399969,0.165726 0.156356,0 0.297487,-0.06325 0.399968,-0.165726 l 3.816392,-3.816391 c 0.10248,-0.102189 0.166019,-0.243905 0.166019,-0.399969 0,-0.156064 -0.06354,-0.297781 -0.166019,-0.399969 v 0 z">
         <animate id="git_1" attributeName="opacity" values="0;1" dur="1s" begin="node_2.end" fill="freeze" />
         <animate id="git_2" attributeName="opacity" values="1;0" dur="1s" begin="git_1.end+2s" fill="freeze" />
      </path>
      <path id="mongo" opacity="0"
         d="m 31.942702,18.230954 c 0,0 0,-3.217032 0.10681,-3.216721 0.08259,0 0.190023,4.149754 0.190023,4.149754 -0.147796,-0.01739 -0.296833,-0.682776 -0.296833,-0.933033 z m 2.070376,-3.179462 C 33.727734,13.804547 33.102709,12.73241 32.240776,11.904943 l -0.0021,-0.0019 C 32.133701,11.74283 32.037758,11.559018 31.960754,11.365269 l -0.0075,-0.02111 c 3.1e-4,0.0062 3.1e-4,0.01366 3.1e-4,0.02111 0,0.175429 -0.07856,0.332229 -0.202442,0.437487 l -9.09e-4,6.18e-4 c -1.109718,0.94204 -1.815784,2.330259 -1.83907,3.883663 v 0.004 c -3.09e-4,0.01925 -3.09e-4,0.04192 -3.09e-4,0.06458 0,1.539119 0.740529,2.905293 1.8847,3.761637 l 0.01211,0.0087 0.02701,0.01956 q 0.07483,0.553922 0.127923,1.110327 h 0.186608 c 0.05154,-0.462946 0.121092,-0.868141 0.212067,-1.265574 l -0.01429,0.07421 c 0.122955,-0.08539 0.230387,-0.173877 0.330676,-0.269819 l -9.1e-4,9.1e-4 c 0.869695,-0.806353 1.412439,-1.955182 1.412439,-3.230383 0,-0.01894 0,-0.03757 -3.09e-4,-0.05651 v 0.0028 c -9.1e-4,-0.304592 -0.02857,-0.602355 -0.08104,-0.891426 l 0.0047,0.03074 z">
         <animate id="mongo_1" attributeName="opacity" values="0;1" dur="1s" begin="git_2.end" fill="freeze" />
         <animate id="mongo_2" attributeName="opacity" values="1;0" dur="1s" begin="mongo_1.end+2s" fill="freeze" />
      </path>
   </g>
</svg>