<svg xmlns="http://www.w3.org/2000/svg">
    <symbol id="icon-logo" viewBox="0 0 109 32">
        <path
            d="M16.017 0c-8.845-0-16.017 7.164-16.017 16s7.171 16 16.017 16c1.686-0.001 3.325-0.266 4.871-0.76 0.056-0.018-0.361-0.436-0.262-1.016 0.072-0.424 1.077-1.901 1.077-1.901s0.544 1.008 0.733 1.599c0.096 0.302 0.104 0.688 0.207 0.641 0.677-0.308 1.33-0.663 1.955-1.060 0.693-1.241 1.194-2.612 1.29-4.255 0.511 0.702 0.976 1.413 1.371 2.14 1.828-1.801 3.237-4.054 4.039-6.622-0.165-0.195-0.316-0.541-0.425-1.015-0.274-1.191-1.044-2.734-1.972-3.952-0.369-0.485-1.255-1.023-2.007-1.22-0.767-0.201-0.78-0.194-0.442 0.262 0.532 0.719 1.025 1.581 1.154 2.014 0.069 0.231 0.216 0.596 0.326 0.81 0.347 0.674 0.188 2.384-0.348 3.737-0.068 0.171-0.149 0.542-0.181 0.825-0.093 0.821-0.432 1.477-0.499 0.966-0.213-1.615-0.263-1.81-0.58-2.272-0.648-0.945-1.698-1.55-1.412-0.814 0.813 2.093 0.729 3.079-0.407 4.8-0.283 0.428-0.547 0.882-0.587 1.009-0.138 0.435-2.105-1.659-3.049-3.246-1.165-1.959-2.062-4.891-1.85-6.044 0.029-0.157 0.083-0.758 0.12-1.336 0.218-3.388 0.444-3.875 1.482-3.196 0.064 0.042 0.375 0.185 0.691 0.319s0.789 0.403 1.052 0.596c0.563 0.415 0.62 0.352 0.332-0.355-0.497-1.221-2.607-3.181-3.671-3.409-0.809-0.173-1.914-0.104-1.911 0.12 0 0.025 0.242 0.177 0.539 0.339 0.575 0.313 0.98 0.741 1.101 1.165 0.26 0.906-1.224 2.888-2.519 3.364-0.204 0.075-0.371 0.148-0.371 0.161 0 0.036 1.205 1.663 1.484 2.004 0.955 1.167 0.89 2.99-0.133 3.684-1.257 0.853-3.675 3.268-4.367 4.364-0.193 0.305-0.714 0.7-0.921 0.668-0.129-0.020-0.375-0.046-0.865-0.117-0.847-0.124-1.277-0.544-1.584-0.826-0.276-0.255-1.318-2.045-1.227-3.017h0.001c0.039 0.007 0.54 0.682 0.844 0.574 0.337-0.12 1.054-0.584 1.302-0.742s0.866-0.416 1.006-0.489c0.487-0.305 0.885-0.521 1.419-0.992-0.488-0.733-0.728-1.070-1.185-2.045-0.193-0.413-0.336-0.345-1.644 0.251-0.779 0.355-1.856 0.544-2.169 0.76-0.311 0.214 0.615 1.031 0.28 0.919-2.062-0.691-2.534-2.233-2.626-3.126-0.050-0.485 0.557-0.344 0.892-0.429 0.393-0.099 1.228-0.809 1.1-0.936-0.042-0.042-0.248-0.108-0.459-0.144-0.173-0.029-0.638-0.416-1.064-0.561-1.023-0.35-0.256 1.463-0.54 1.324-0.273-0.135-0.498-0.873-0.574-1.302-0.016-0.666 1.3-1.561 1.777-1.857 0.267-0.166 0.707-0.518 1.267-0.637 0.68-0.145 1.192-0.351 1.359-0.535 0.301-0.333 1.349 0.731 1.709 1.066 0.15 0.14 0.395 0.259 0.634 0.31 0.214 0.046 0.515 0.137 0.67 0.201 0.737 0.308 1.585-0.455 1.242-1.117-0.368-0.711-1.043-1.282-1.625-1.075-0.29 0.103-1.185 0.558-1.464 0.63-0.74 0.19-0.998-0.288-0.906-0.495 0.361-0.817 0.177-0.913 1.955-1.79 1.317-0.65 1.967-0.778 1.975-1.274 0.005-0.316 1.248-2.084 1.749-2.614 0.691-0.731 1.042 0.501 0.726 1.282-0.202 0.501-0.395 1.529-0.311 1.665 0.030 0.049 0.273-0.125 0.589-0.423 0.74-0.697 1.821-1.405 2.84-1.86 1.186-0.529 1.166-0.789-0.052-0.599-3.023 0.472-0.041-0.791-0.539-0.763s-0.681-0.047-1.414 0.425c-0.373 0.24-1.164-0.367-0.834-0.711 0.667-0.693 2.243-1.549 3.606-1.697 1.293-0.139 2.371-0.263 2.491-0.243 0.725-0.017 1.105 0.002 1.702 0.021-2.394-1.371-5.132-2.121-7.965-2.121zM26.109 3.577c-0.329 0.27-0.705 0.497-1.106 0.642-0.687 0.166-1.598 0.278-1.926 0.641-0.348 0.385-0.247 0.446 0.744 0.456 0.273 0.003 0.893 0.137 1.675 0.364 0.683 0.198 2.008 0.352 2.424 0.473 0.277 0.080 0.574 0.142 0.877 0.204-0.788-1.043-1.693-1.973-2.687-2.78zM30.766 9.765c-0.865 0.187-2.27 0.665-2.569 0.912-0.283 0.234-0.383 0.117 1.22 1.445 0.776 0.643 1.786 1.379 2.507 2.034-0.175-1.512-0.565-2.99-1.159-4.391zM18.691 20.013c0.002-0 0.003 0 0.005 0 0.050-0.001 0.098 0.179 0.104 0.474 0.003 0.15 0.106 0.519 0.229 0.82s0.261 0.726 0.308 0.942c0.188 0.877 0.615 1.666 2.042 3.784 0.366 0.542 0.319 0.554-0.366 0.085-1.292-0.885-2.196-1.168-2.151-0.675 0.194 1.093 0.837 3.322 1.044 4.131-0.067 0.007-0.65-0.362-0.945-0.41-0.193-0.055-0.71-0.050-0.86-0.054-0.654-0.017-1.158-0.099-1.699-0.378l-0.861-0.587c0.449 1.017 0.474 0.911 1.3 1.452 0.593 0.389 0.112 1.604-0.508 1.596-0.341-0.004-1.467-0.295-1.775-0.37-1.326-0.321-2.548-2.598-2.465-4.426 0.274 0.385 1.429 0.849 1.306 0.464-0.62-1.946 1.733-0.911 1.871-0.556 0.601 0.498 0.994 0.546 1.536 0.516-0.705-0.474-1.339-1.592-1.472-2.125-0.213-0.583-0.119-1.315 0.227-2.030 0.353-0.728 0.465-0.744 0.516-0.078 0.055 0.706 0.222 0.948 0.857 1.241 0.643 0.296 0.622 0.297 0.622-0.043 0-0.399 0.186-1.078 0.628-2.294 0.211-0.581 0.408-1.175 0.438-1.32 0.021-0.103 0.044-0.155 0.069-0.161z">
        </path>
        <path
            d="M95.988 6.401c-7.057 0-12.812 5.748-12.812 12.799s5.754 12.799 12.812 12.799c7.057 0 12.812-5.748 12.812-12.799 0-0.758-0.068-1.5-0.195-2.222l-3.151 0.555c0.094 0.541 0.144 1.098 0.144 1.667 0 5.321-4.283 9.6-9.61 9.6-2.082 0-4.002-0.656-5.572-1.77l15.686-15.671c-2.347-3.013-6.010-4.957-10.114-4.957zM95.988 9.601c2.082 0 4.003 0.656 5.573 1.77l-13.411 13.396c-1.115-1.568-1.771-3.488-1.771-5.567 0-5.321 4.282-9.599 9.608-9.599z">
        </path>
        <path
            d="M35.127 0v19.2h0.001c0 0 0 0.001 0 0.001 0 7.050 5.755 12.799 12.813 12.799s12.812-5.748 12.812-12.799c0-7.050-5.754-12.8-12.812-12.8-3.821 0-7.26 1.687-9.611 4.351v-10.752zM47.941 9.601c5.326 0 9.608 4.279 9.608 9.6s-4.282 9.599-9.608 9.599c-5.326 0-9.61-4.278-9.61-9.599s4.283-9.6 9.61-9.6z">
        </path>
        <path d="M63.956 6.4h3.203v25.599h-3.203v-25.599z"></path>
        <path
            d="M70.363 6.4v12.8c0.001 7.050 5.756 12.797 12.813 12.797v-3.199c-5.326 0-9.609-4.278-9.61-9.599v-9.6h9.61v-3.2h-9.61l0-6.4h-3.203z">
        </path>
        <path
            d="M67.16 1.601c0 0.884-0.717 1.6-1.602 1.6s-1.602-0.716-1.602-1.6c0-0.884 0.717-1.6 1.602-1.6s1.602 0.716 1.602 1.6z">
        </path>
    </symbol>
    <symbol id="icon-phone" viewBox="0 0 32 32">
        <path
            d="M16 0c-8.837 0-16 7.163-16 16v0c0 8.837 7.163 16 16 16v0c8.837 0 16-7.163 16-16v0c0-8.837-7.163-16-16-16v0zM10.072 7.147c0.030-0.002 0.064-0.004 0.099-0.004 0.392 0 0.742 0.177 0.976 0.456l0.002 0.002c0 0 0.852 1.024 1.218 1.52s0.751 1.059 1.069 1.622c0.137 0.217 0.219 0.481 0.219 0.765 0 0.423-0.182 0.804-0.472 1.069l-0.001 0.001-0.83 0.658c-0.226 0.223-0.365 0.532-0.365 0.874 0 0.028 0.001 0.056 0.003 0.084l-0-0.004c0 0 1.231 4.659 5.82 5.833 0.023 0.002 0.050 0.002 0.078 0.002 0.343 0 0.654-0.141 0.876-0.368l0-0 0.661-0.827c0.265-0.292 0.645-0.475 1.069-0.475 0.284 0 0.549 0.082 0.772 0.224l-0.006-0.003c0.644 0.366 1.178 0.711 1.694 1.081l-0.056-0.038c0.496 0.369 1.517 1.218 1.52 1.218 0.283 0.235 0.461 0.587 0.461 0.98 0 0.248-0.071 0.48-0.194 0.676l0.003-0.005c-0.38 0.651-0.837 1.207-1.367 1.683l-0.006 0.006c-0.375 0.343-0.851 0.583-1.377 0.672l-0.016 0.002c-0.031 0.004-0.066 0.006-0.102 0.006s-0.071-0.002-0.106-0.006l0.004 0c-0.003 0-0.007 0-0.011 0-0.208 0-0.407-0.034-0.594-0.096l0.013 0.004v-0.022c-0.703-0.197-1.876-0.693-3.816-1.771-1.236-0.66-2.295-1.353-3.288-2.127l0.050 0.038c-0.53-0.415-1.002-0.831-1.448-1.273l0.001 0.001-0.051-0.048-0.048-0.051-0.048-0.048-0.051-0.048c-0.438-0.445-0.854-0.917-1.244-1.41l-0.028-0.036c-0.755-0.939-1.464-1.989-2.084-3.097l-0.059-0.115c-1.078-1.953-1.59-3.123-1.771-3.816h-0.022c-0.056-0.17-0.089-0.366-0.089-0.57 0-0.008 0-0.015 0-0.023v0.001c-0.004-0.031-0.006-0.066-0.006-0.102s0.002-0.071 0.006-0.106l-0 0.004c0.089-0.557 0.333-1.045 0.686-1.433l-0.002 0.002c0.481-0.537 1.038-0.994 1.656-1.356l0.032-0.018c0.163-0.103 0.358-0.17 0.567-0.187l0.005-0z">
        </path>
    </symbol>
</svg>